<svg xmlns="http://www.w3.org/2000/svg" viewBox="0 0 1920 500" width="1920" height="500">
<path d="M929.50,338.04C904.93,334.11 882.43,326.10 858.89,312.92C848.93,307.34 829.52,294.73 824.50,290.58L821.50,288.10L826.50,289.64C833.93,291.92 846.17,291.65 853.92,289.03L860.34,286.86L862.92,288.93C876.22,299.58 897.83,311.59 912.38,316.40C940.40,325.67 973.89,326.46 1001.50,318.48C1018.30,313.63 1036.40,304.86 1050.23,294.87C1053.94,292.19 1057.20,290.00 1057.48,290.00C1057.77,290.00 1058.00,291.69 1058.01,293.75C1058.01,299.87 1059.85,304.74 1063.11,307.29L1066.15,309.67L1063.79,311.22C1059.11,314.28 1040.83,323.08 1031.26,326.88C1016.00,332.93 1004.44,336.03 987.88,338.52C974.13,340.58 943.87,340.33 929.50,338.04ZM774.00,314.33C771.55,313.42 770.00,310.82 770.00,307.62C770.00,305.07 772.75,301.85 788.43,286.06L806.86,267.50L804.35,263.28C797.22,251.32 797.29,233.90 804.52,221.56C813.34,206.51 829.90,198.33 846.25,200.96C873.73,205.39 889.68,235.70 877.56,260.47C871.10,273.67 854.60,284.00 839.95,284.00C833.88,284.00 822.82,281.07 819.49,278.58C817.61,277.18 816.46,278.14 799.00,295.49C781.21,313.19 777.81,315.74 774.00,314.33ZM1067.56,302.78C1066.21,300.85 1066.00,295.02 1066.00,259.28C1066.00,209.93 1064.80,214.00 1079.41,214.00L1088.82,214.00L1089.54,205.34C1091.52,181.63 1085.40,154.44 1073.54,134.20C1050.04,94.11 1008.67,71.00 960.39,71.00C904.60,71.00 857.68,102.07 837.97,152.08C834.52,160.82 831.90,172.10 830.71,183.25C830.08,189.20 829.10,194.01 828.53,194.02C827.96,194.04 824.85,195.14 821.60,196.47L815.70,198.90L816.30,188.70C817.90,160.93 828.75,131.70 845.14,110.94C849.12,105.90 849.21,105.64 846.47,107.40C839.21,112.04 820.53,126.70 810.00,136.01C798.88,145.84 749.99,193.89 750.01,194.97C750.03,195.70 762.79,209.86 777.98,226.00L790.68,239.50L791.37,246.29C791.75,250.03 793.15,256.09 794.49,259.76C795.82,263.43 796.67,266.67 796.37,266.96C795.59,267.74 772.38,243.71 750.74,219.72C733.10,200.17 732.00,198.71 732.00,195.00C732.00,191.23 732.93,190.09 753.37,168.78C800.43,119.73 830.77,94.77 863.25,78.40C885.13,67.37 905.32,60.65 928.00,56.83C944.10,54.12 974.12,53.92 990.00,56.41C1040.74,64.39 1082.68,87.20 1133.41,134.41C1150.48,150.30 1187.88,189.68 1188.59,192.51C1188.92,193.83 1188.81,196.01 1188.35,197.35C1187.22,200.61 1154.47,236.64 1135.05,256.00C1120.06,270.95 1104.06,285.00 1103.95,283.31C1103.92,282.87 1103.51,278.90 1103.04,274.50L1102.19,266.50L1122.86,245.50C1141.92,226.13 1169.11,196.91 1169.79,195.06C1170.27,193.75 1123.30,147.02 1110.50,136.08C1099.91,127.03 1083.36,114.18 1073.00,106.96L1069.50,104.52L1071.50,107.12C1082.16,120.98 1087.40,129.13 1091.04,137.54C1101.59,161.93 1105.70,187.18 1103.07,211.43C1102.41,217.44 1101.44,223.18 1100.90,224.18C1100.05,225.77 1098.54,226.00 1088.96,226.00L1078.00,226.00L1078.00,234.00L1078.00,242.00L1084.80,242.00C1092.31,242.00 1094.00,242.95 1094.00,247.16C1094.00,250.82 1091.57,252.00 1084.07,252.00L1078.00,252.00L1078.00,259.50L1078.00,267.00L1084.07,267.00C1091.98,267.00 1094.00,268.12 1094.00,272.50C1094.00,276.88 1091.98,278.00 1084.07,278.00L1078.00,278.00L1078.00,285.50L1078.00,293.00L1086.94,293.00C1095.05,293.00 1096.03,293.21 1097.44,295.22C1099.58,298.27 1099.41,299.69 1096.55,302.55C1094.20,304.89 1093.53,305.00 1081.60,305.00C1069.83,305.00 1069.02,304.87 1067.56,302.78ZM956.63,301.49C954.48,299.33 953.68,292.40 954.21,280.49C954.72,269.03 955.95,265.99 961.27,263.15C966.37,260.44 969.00,257.36 969.00,254.10C969.00,252.46 968.55,250.84 968.00,250.50C966.25,249.42 967.18,240.00 969.04,240.00C971.20,240.00 976.07,245.54 977.02,249.09C978.81,255.70 977.42,259.87 971.55,265.51L966.33,270.51L965.68,284.91C965.16,296.30 964.67,299.70 963.36,301.16C961.33,303.39 958.67,303.52 956.63,301.49ZM939.00,289.52C924.31,286.58 909.64,279.17 896.23,267.90C888.45,261.36 886.67,259.03 887.59,256.63C887.91,255.79 888.72,251.88 889.38,247.94L890.59,240.78L893.15,244.64C896.77,250.11 906.47,259.57 912.97,263.98C923.47,271.09 933.22,275.19 944.79,277.36C948.25,278.01 951.07,278.87 951.04,279.27C951.02,279.67 951.00,282.48 951.00,285.50C951.00,290.86 950.93,291.00 948.25,290.91C946.74,290.85 942.58,290.23 939.00,289.52ZM969.00,284.62L969.00,278.23L974.75,277.51C982.29,276.57 994.75,271.97 1002.94,267.10C1022.14,255.68 1036.70,234.80 1041.56,211.72C1042.35,207.95 1043.00,204.45 1043.00,203.93C1043.00,203.42 1039.02,203.00 1034.15,203.00C1024.15,203.00 1022.00,201.80 1022.00,196.21C1022.00,191.90 1024.18,191.00 1034.56,191.00L1043.26,191.00L1042.57,185.75C1041.64,178.63 1036.57,163.72 1032.80,157.00C1025.35,143.72 1014.51,133.05 1000.90,125.60C993.94,121.78 981.30,117.00 978.19,117.00C975.27,117.00 975.10,116.17 977.12,112.00C978.15,109.85 979.00,107.15 979.00,106.00C979.00,104.13 979.39,103.98 982.75,104.59C984.81,104.97 989.65,106.39 993.50,107.76C1027.33,119.79 1049.82,147.51 1054.96,183.50C1057.72,202.85 1053.54,225.99 1044.20,243.00C1031.21,266.67 1006.87,284.68 981.23,289.58C968.76,291.97 969.00,292.06 969.00,284.62ZM851.57,268.57C877.60,256.81 872.67,219.09 844.41,213.84C832.37,211.60 821.09,217.51 815.12,229.20C810.44,238.37 810.38,246.26 814.91,255.47C819.10,263.97 825.57,268.97 835.50,271.36C839.00,272.20 846.34,270.93 851.57,268.57ZM954.00,243.64L954.00,223.29L959.72,220.70C962.87,219.27 965.57,218.24 965.72,218.39C965.88,218.54 965.70,227.54 965.34,238.40L964.68,258.12L960.91,260.05C958.83,261.11 956.85,262.43 956.51,262.99C954.51,266.23 954.00,262.32 954.00,243.64ZM945.90,239.73C937.32,234.00 936.70,221.14 944.64,213.55C946.21,212.05 952.97,208.21 959.65,205.02C972.63,198.83 975.73,196.03 974.59,191.52C974.25,190.15 972.85,188.29 971.48,187.40C969.30,185.97 969.00,185.05 969.00,179.88C969.00,173.18 969.69,172.77 975.79,175.90C985.48,180.87 989.40,191.23 985.10,200.50C982.25,206.67 978.47,209.50 964.97,215.55C958.11,218.63 951.71,221.86 950.75,222.73C948.60,224.67 948.44,229.85 950.50,230.64C951.58,231.05 952.00,232.74 952.00,236.61C952.00,242.80 951.14,243.23 945.90,239.73ZM876.40,208.59C876.10,207.82 873.19,205.24 869.93,202.87C863.03,197.84 863.03,197.84 865.61,181.63C869.07,159.84 878.09,142.70 894.13,127.44C901.47,120.47 907.03,116.51 915.51,112.24C921.29,109.33 938.84,103.34 939.29,104.12C939.42,104.33 940.24,106.53 941.12,109.00C942.00,111.47 943.02,114.19 943.39,115.04C943.92,116.27 942.87,116.84 938.28,117.79C930.10,119.49 915.43,126.97 906.78,133.84C891.63,145.88 881.17,164.80 877.53,186.75L876.82,191.00L886.36,191.00C895.07,191.00 896.02,191.19 897.44,193.22C899.54,196.21 899.40,198.60 897.00,201.00C895.30,202.70 893.67,203.00 886.20,203.00L877.40,203.00L877.81,206.50C878.22,210.02 877.41,211.22 876.40,208.59ZM954.00,177.50L954.00,151.00L956.95,151.00C958.58,151.00 961.05,151.52 962.45,152.16L965.00,153.32L965.00,176.54L965.00,199.75L960.06,201.88C957.35,203.04 954.88,204.00 954.56,204.00C954.25,204.00 954.00,192.07 954.00,177.50ZM947.00,181.06C936.67,177.90 928.04,170.21 926.08,162.40C923.29,151.34 931.58,139.60 945.50,134.87C947.98,134.03 953.68,133.54 960.50,133.58C969.39,133.64 972.59,134.08 977.20,135.88C983.78,138.45 992.35,145.69 993.82,149.91C994.69,152.40 994.50,153.12 992.48,155.02C988.62,158.65 982.54,158.72 976.00,155.22C972.98,153.60 968.29,151.09 965.58,149.64C953.07,142.93 935.75,149.91 938.43,160.57C939.27,163.94 943.11,167.46 947.24,168.63C950.42,169.55 950.51,169.71 950.80,175.78C950.96,179.20 950.74,181.96 950.30,181.91C949.86,181.87 948.38,181.48 947.00,181.06ZM978.88,143.35C978.01,142.30 977.41,142.25 976.35,143.12C975.30,143.99 975.25,144.59 976.12,145.65C976.99,146.70 977.59,146.75 978.65,145.88C979.70,145.01 979.75,144.41 978.88,143.35ZM954.00,121.88C954.00,116.51 953.63,115.35 951.00,112.35C945.23,105.77 947.57,95.75 955.68,92.36C967.34,87.49 976.91,102.83 968.46,112.86C966.43,115.27 966.00,116.87 966.00,121.89L966.00,128.00L960.00,128.00L954.00,128.00L954.00,121.88Z" fill="#3070B0" fill-rule="evenodd" stroke="none"/>
<path d="M828.97,444.64C818.11,441.71 812.98,433.88 813.02,420.28C813.05,408.64 816.97,401.13 825.21,396.90C829.68,394.61 840.46,394.32 845.28,396.36C852.48,399.40 857.90,407.78 858.75,417.18L859.28,423.00L841.64,423.00C824.57,423.00 824.00,423.07 824.00,425.03C824.00,428.34 826.61,433.62 829.12,435.37C830.57,436.38 833.47,437.00 836.80,437.00C841.42,437.00 842.57,436.59 845.15,434.00C847.67,431.48 848.94,431.00 853.08,431.00C855.78,431.00 858.00,431.25 858.00,431.55C858.00,431.85 857.35,433.36 856.55,434.90C854.11,439.62 848.58,443.71 843.03,444.90C836.76,446.24 834.77,446.21 828.97,444.64ZM881.36,445.09C873.44,443.08 867.76,434.82 866.47,423.42C865.12,411.55 871.27,398.72 879.62,395.96C881.59,395.31 886.07,394.96 889.58,395.19C894.96,395.53 896.44,396.05 898.98,398.48L902.00,401.37L902.00,390.19L902.00,379.00L907.50,379.00L913.00,379.00L913.00,412.00L913.00,445.00L907.38,445.00L901.75,445.00L902.35,442.00C902.96,438.96 901.68,437.79 900.66,440.45C899.28,444.03 887.94,446.76 881.36,445.09ZM1023.22,444.99C1015.88,443.45 1010.00,437.69 1010.00,432.05C1010.00,430.24 1010.62,430.00 1015.39,430.00C1020.30,430.00 1020.84,430.22 1021.41,432.48C1022.21,435.68 1026.75,438.00 1032.23,438.00C1038.08,438.00 1041.00,435.83 1041.00,431.48C1041.00,427.23 1039.62,426.42 1027.00,423.33C1018.93,421.36 1017.01,420.48 1014.25,417.52C1007.99,410.80 1010.73,400.10 1019.67,396.36C1025.02,394.13 1036.79,394.60 1041.98,397.25C1046.57,399.60 1049.67,403.09 1050.19,406.50C1050.45,408.20 1049.86,408.55 1046.21,408.81C1042.50,409.08 1041.52,408.70 1039.06,406.06C1036.54,403.37 1035.54,403.00 1030.75,403.00C1026.75,403.00 1024.87,403.48 1023.65,404.83C1019.65,409.26 1022.57,412.12 1034.00,414.99C1049.95,418.99 1052.00,420.70 1052.00,430.00C1052.00,436.68 1050.00,439.94 1044.02,442.99C1039.55,445.27 1029.25,446.26 1023.22,444.99ZM1100.94,444.69C1090.82,441.84 1085.04,434.39 1084.25,423.18C1083.66,414.89 1085.11,409.34 1089.29,403.79C1093.98,397.58 1099.69,395.00 1108.75,395.00C1117.29,395.00 1121.98,396.93 1126.82,402.45C1132.94,409.42 1134.67,423.81 1130.40,432.28C1125.08,442.82 1112.75,448.02 1100.94,444.69ZM733.00,412.00L733.00,379.00L742.28,379.00L751.56,379.00L754.84,389.75C756.64,395.66 759.16,403.88 760.44,408.00C761.72,412.12 763.56,418.20 764.54,421.50C765.51,424.80 766.66,427.89 767.08,428.37C767.83,429.23 770.06,422.69 779.05,393.25L783.40,379.00L792.70,379.00L802.00,379.00L802.00,412.00L802.00,445.00L796.50,445.00L791.00,445.00L791.00,419.00C791.00,404.70 790.66,393.01 790.25,393.01C789.84,393.02 785.67,404.61 781.00,418.76L772.50,444.50L766.95,444.79L761.39,445.09L759.62,439.29C758.64,436.11 754.84,424.27 751.17,413.00L744.50,392.50L744.23,418.75L743.97,445.00L738.48,445.00L733.00,445.00L733.00,412.00ZM943.48,443.97C942.62,442.57 921.00,380.93 921.00,379.86C921.00,379.39 923.82,379.00 927.27,379.00L933.53,379.00L941.96,405.06C946.60,419.40 950.70,431.31 951.08,431.55C951.81,432.00 954.52,424.50 963.65,396.75L969.49,379.00L975.75,379.00C979.19,379.00 982.00,379.21 982.00,379.47C982.00,380.31 970.04,414.07 964.19,429.74L958.50,444.98L951.31,444.99C947.35,445.00 943.83,444.54 943.48,443.97ZM989.00,420.50L989.00,396.00L994.50,396.00L1000.00,396.00L1000.00,420.50L1000.00,445.00L994.50,445.00L989.00,445.00L989.00,420.50ZM1062.67,444.33C1062.30,443.97 1062.00,432.94 1062.00,419.83L1062.00,396.00L1068.00,396.00L1074.00,396.00L1074.00,420.50L1074.00,445.00L1068.67,445.00C1065.73,445.00 1063.03,444.70 1062.67,444.33ZM1143.00,420.50L1143.00,396.00L1148.50,396.00L1154.00,396.00L1154.00,399.25L1154.01,402.50L1156.25,399.84C1159.53,395.97 1162.12,395.00 1169.18,395.00C1176.60,395.01 1180.95,397.17 1183.70,402.21C1185.22,404.99 1185.55,408.54 1185.83,425.25L1186.15,445.00L1180.58,445.00L1175.00,445.00L1174.96,430.75C1174.90,413.88 1174.01,408.23 1170.98,405.79C1166.32,402.01 1157.21,405.10 1155.09,411.18C1154.49,412.90 1154.00,421.16 1154.00,429.65L1154.00,445.00L1148.50,445.00L1143.00,445.00L1143.00,420.50ZM895.81,434.97C897.63,433.86 899.77,431.41 900.56,429.51C902.44,425.02 902.41,414.70 900.52,411.04C895.56,401.44 883.50,401.78 879.38,411.64C877.58,415.93 877.62,425.14 879.44,429.51C881.05,433.35 886.18,436.99 890.00,436.99C891.38,436.99 893.99,436.08 895.81,434.97ZM1115.90,434.43C1117.72,432.90 1119.42,430.16 1120.09,427.68C1121.57,422.22 1120.68,412.85 1118.30,408.78C1114.22,401.79 1103.62,401.51 1098.81,408.27C1096.04,412.16 1095.01,424.19 1097.02,429.05C1100.26,436.87 1109.78,439.58 1115.90,434.43ZM847.40,413.25C846.36,408.78 844.08,405.93 840.26,404.34C834.06,401.75 828.53,404.07 825.12,410.68C822.52,415.73 823.07,416.00 836.02,416.00L848.04,416.00L847.40,413.25ZM989.00,384.00L989.00,379.00L995.00,379.00L1001.00,379.00L1001.00,384.00L1001.00,389.00L995.00,389.00L989.00,389.00L989.00,384.00ZM1062.67,388.33C1062.30,387.97 1062.00,385.72 1062.00,383.33L1062.00,379.00L1068.00,379.00L1074.00,379.00L1074.00,384.00L1074.00,389.00L1068.67,389.00C1065.73,389.00 1063.03,388.70 1062.67,388.33Z" fill="#303030" fill-rule="evenodd" stroke="none"/>
</svg>
